<?xml version="1.0" encoding="utf-8" ?><svg xmlns="http://www.w3.org/2000/svg" xmlns:xlink="http://www.w3.org/1999/xlink" width="16" height="16"><path fill="#000" fill-opacity="0.5" transform="matrix(1 0 0 1 1 1.81899e-12)" d="M10.3999 1.0808L10 0L9.6001 1.0808C9.3396 1.7847 8.7847 2.3396 8.0808 2.6001L7 3L8.0808 3.3999C8.7847 3.6604 9.3396 4.2153 9.6001 4.9192L10 6L10.3999 4.9192C10.6604 4.2153 11.2153 3.6604 11.9192 3.3999L13 3L11.9192 2.6001C11.2153 2.3396 10.6604 1.7847 10.3999 1.0808ZM9.7453 11.6878L13.5286 15.4713L14.4715 14.5285L10.6881 10.7449C11.5091 9.7185 12 8.4166 12 7C12 6.2039 11.8449 5.444 11.5634 4.7488L10.5737 6.0684C10.6347 6.3694 10.6667 6.681 10.6667 7C10.6667 9.5773 8.5773 11.6667 6 11.6667C3.4227 11.6667 1.3333 9.5773 1.3333 7C1.3333 4.4227 3.4227 2.3333 6 2.3333C6.2032 2.3333 6.4034 2.3463 6.5998 2.3715L8.2422 1.433C7.5495 1.1537 6.7927 1 6 1C2.6863 1 0 3.6863 0 7C0 10.3137 2.6863 13 6 13C7.4168 13 8.7189 12.509 9.7453 11.6878Z" fill-rule="evenodd"/></svg>