<svg width="16" height="16" viewBox="0 0 16 16" fill="none" xmlns="http://www.w3.org/2000/svg">
<path d="M10.6928 1.9567C10.7284 2.04479 10.7719 2.16572 10.8314 2.34309C11.1528 3.3007 11.332 3.84287 11.6256 4.31004C11.8276 4.63137 12.0689 4.92412 12.3458 5.18369C12.7484 5.56104 13.2464 5.8404 14.1251 6.3386C14.2874 6.43064 14.3973 6.49671 14.477 6.54842C14.3718 6.60684 14.229 6.68208 14.0208 6.78758C12.8937 7.35866 12.2563 7.67926 11.67 8.09254C11.2668 8.37682 10.8841 8.69224 10.5281 9.03384C10.0106 9.53048 9.57426 10.095 8.79863 11.0925C8.65534 11.2767 8.55425 11.4025 8.47682 11.4946C8.44126 11.4066 8.39738 11.2861 8.338 11.1092C8.0166 10.1516 7.83739 9.60943 7.54378 9.14225C7.34181 8.82093 7.10047 8.52817 6.82358 8.26861C6.42101 7.89125 5.923 7.61189 5.04429 7.11369C4.88154 7.02142 4.77113 6.95569 4.69144 6.90392C4.79675 6.84542 4.93984 6.77049 5.14861 6.66471C6.27574 6.09364 6.91314 5.77303 7.4994 5.35976C7.90265 5.07548 8.28528 4.76006 8.64126 4.41846C9.15881 3.92182 9.59514 3.35729 10.3708 2.35982C10.5144 2.17508 10.6153 2.0489 10.6928 1.9567Z" stroke="var(--color-text-secondary, black)" stroke-opacity="0.7" style="stroke: var(--color-text-secondary, black);stroke-opacity:0.7;" stroke-width="1.16375"/>
<path d="M3.85212 9.30708C3.98536 9.70195 4.08003 9.97121 4.2284 10.2074C4.34474 10.3924 4.48412 10.5615 4.64361 10.711C4.84699 10.9016 5.09275 11.0463 5.45459 11.2522C4.99009 11.4882 4.67236 11.6533 4.3762 11.862C4.14393 12.0258 3.92294 12.2079 3.71789 12.4047C3.45649 12.6556 3.23378 12.936 2.91353 13.3469C2.78041 12.9525 2.68531 12.6836 2.53703 12.4476C2.4207 12.2625 2.28131 12.0934 2.12182 11.9439C1.91832 11.7532 1.67206 11.6089 1.30986 11.4028C1.77483 11.1666 2.0929 11.0018 2.38924 10.7929C2.6215 10.6292 2.84249 10.447 3.04754 10.2503C3.3091 9.99922 3.53156 9.71844 3.85212 9.30708Z" stroke="var(--color-text-secondary, black)" stroke-opacity="0.7" style="stroke: var(--color-text-secondary, black);stroke-opacity:0.7;" stroke-width="1.16375"/>
</svg>
