<svg width="16" height="16" viewBox="0 0 16 16" fill="none" xmlns="http://www.w3.org/2000/svg">
<path fill-rule="evenodd" clip-rule="evenodd" d="M9.14396 1.77951C10.3702 0.553313 12.3592 0.553315 13.5854 1.77951C14.8114 3.00572 14.8115 4.99476 13.5854 6.22092L6.27286 13.5324C5.94868 13.8566 5.71253 14.0991 5.42716 14.2737C5.1899 14.4188 4.93094 14.5259 4.66056 14.591C4.33515 14.6694 3.99637 14.6653 3.53751 14.6653H0.699621V11.8274C0.699621 11.3686 0.695544 11.0297 0.77384 10.7043C0.83899 10.434 0.946131 10.175 1.09122 9.93771C1.26582 9.65234 1.50824 9.4162 1.83243 9.09201L9.14396 1.77951ZM12.8588 8.99436C12.9414 9.00221 13.0059 9.09775 13.1332 9.28928C13.4121 9.70878 13.5513 9.91887 13.7289 10.0832C13.8534 10.1984 13.9915 10.2963 14.141 10.3762C14.3545 10.4901 14.5994 10.5538 15.0873 10.6799C15.3094 10.7373 15.4209 10.7659 15.4555 10.841C15.479 10.8924 15.4808 10.957 15.4613 11.0217C15.4328 11.1166 15.3258 11.2132 15.1117 11.4055C14.6432 11.8264 14.4085 12.0368 14.2074 12.2785C14.0663 12.4482 13.9377 12.6296 13.8236 12.8186C13.6612 13.0878 13.5386 13.3783 13.2943 13.9592C13.1829 14.2243 13.1275 14.3572 13.0473 14.4153C12.9926 14.4549 12.9307 14.4733 12.8744 14.468C12.792 14.46 12.7282 14.3644 12.601 14.1731C12.3221 13.7536 12.1828 13.5435 12.0053 13.3791C11.8807 13.2638 11.742 13.1661 11.5922 13.0862C11.3787 12.9722 11.1348 12.9085 10.6469 12.7824C10.4246 12.725 10.3134 12.6965 10.2787 12.6213C10.2552 12.5699 10.2525 12.5053 10.2719 12.4406C10.3005 12.3458 10.4075 12.2491 10.6215 12.0569C11.0904 11.6356 11.3256 11.4257 11.5268 11.1838C11.6678 11.0143 11.7956 10.8335 11.9096 10.6447C12.0722 10.3754 12.1946 10.0843 12.4389 9.50314C12.5504 9.23795 12.6067 9.10519 12.6869 9.04709C12.7415 9.00772 12.8027 8.98912 12.8588 8.99436ZM2.77286 10.0324C2.40394 10.4014 2.29908 10.5126 2.22599 10.6321C2.15338 10.7508 2.09943 10.8805 2.06681 11.0158C2.03408 11.152 2.0297 11.3054 2.0297 11.8274V13.3352H3.53751C4.0597 13.3352 4.21284 13.3308 4.34904 13.2981C4.4844 13.2654 4.61403 13.2115 4.73282 13.1389C4.8523 13.0658 4.9635 12.9609 5.33243 12.592L6.42325 11.5002L3.86368 8.94064L2.77286 10.0324ZM12.644 2.72092C11.9372 2.01412 10.7922 2.01412 10.0854 2.72092L4.80509 7.99924L7.36466 10.5588L12.644 5.27951C13.3507 4.57275 13.3506 3.42773 12.644 2.72092ZM4.17716 1.12912C4.23767 1.13488 4.28501 1.20555 4.37833 1.34592C4.58274 1.65335 4.68471 1.8075 4.81486 1.92795C4.90614 2.0124 5.00787 2.08425 5.11759 2.14279C5.27397 2.22618 5.45273 2.27217 5.80997 2.36447C5.97317 2.40664 6.05521 2.42833 6.08048 2.48361C6.09758 2.52121 6.09859 2.5682 6.08439 2.61545C6.06344 2.68499 5.98538 2.75579 5.82853 2.8967C5.48487 3.20542 5.31287 3.36007 5.16544 3.53732C5.06214 3.66155 4.96769 3.79354 4.88419 3.93185C4.76504 4.12924 4.67554 4.34289 4.4965 4.76877C4.41489 4.96287 4.37365 5.0602 4.31486 5.10275C4.27488 5.13157 4.22997 5.14569 4.18888 5.14182C4.12838 5.13606 4.08198 5.06534 3.98868 4.92502C3.7842 4.61747 3.68135 4.46345 3.55118 4.34299C3.46002 4.25867 3.35897 4.18662 3.24943 4.12814C3.09295 4.04465 2.91365 3.99885 2.55607 3.90646C2.3929 3.86431 2.31181 3.8426 2.28654 3.78732C2.26936 3.74967 2.2674 3.70283 2.28165 3.65549C2.3026 3.58595 2.38066 3.51515 2.53751 3.37424C2.88098 3.06568 3.05322 2.91172 3.2006 2.73459C3.304 2.61027 3.39828 2.47751 3.48185 2.33908C3.60096 2.14175 3.69059 1.92879 3.86954 1.50314C3.95126 1.30877 3.99235 1.21076 4.05118 1.16818C4.0911 1.13939 4.13611 1.12531 4.17716 1.12912Z" fill="var(--color-text-primary, black)" fill-opacity="0.9" style="fill: var(--color-text-primary, black);fill-opacity:0.9;"/>
</svg>
