<svg width="16" height="16" viewBox="0 0 16 16" fill="none" xmlns="http://www.w3.org/2000/svg">
<path d="M8.66699 1.39844C11.4321 1.72789 13.5761 4.08084 13.5762 6.93457V10.4287L14.667 11.7617V13.667H10.6445C10.4805 14.9824 9.36072 16.0008 8.00098 16.001C6.64107 16.001 5.52044 14.9825 5.35645 13.667H1.33398V11.7617L2.4248 10.4287V6.93457C2.42489 4.08084 4.56892 1.72789 7.33398 1.39844V0H8.66699V1.39844ZM6.70898 13.667C6.857 14.2421 7.3797 14.667 8.00098 14.667C8.62211 14.6668 9.144 14.242 9.29199 13.667H6.70898ZM8.00098 2.69238C5.65801 2.69238 3.7579 4.59162 3.75781 6.93457V10.9043L2.66699 12.2383V12.333H13.334V12.2383L12.2432 10.9043V6.93457C12.2431 4.59173 10.3438 2.69256 8.00098 2.69238Z" fill="var(--color-Text-secondary, black)" fill-opacity="0.6" style="fill: var(--color-Text-secondary, black);fill-opacity:0.6;"/>
</svg>
