<?xml version="1.0" encoding="utf-8" ?><svg xmlns="http://www.w3.org/2000/svg" xmlns:xlink="http://www.w3.org/1999/xlink" width="16" height="16"><path fill="#000" transform="matrix(1 0 0 1 2 2)" d="M9 3L8.335 3C8.335 4.2896 7.2896 5.335 6 5.335L6 6L6 6.665C8.0241 6.665 9.665 5.0241 9.665 3L9 3ZM6 6L6 5.335C4.7104 5.335 3.665 4.2896 3.665 3L3 3L2.335 3C2.335 5.0241 3.9759 6.665 6 6.665L6 6ZM3 3L3.665 3C3.665 1.7104 4.7104 0.665 6 0.665L6 0L6 -0.665C3.9759 -0.665 2.335 0.9759 2.335 3L3 3ZM6 0L6 0.665C7.2896 0.665 8.335 1.7104 8.335 3L9 3L9.665 3C9.665 0.9759 8.0241 -0.665 6 -0.665L6 0ZM4 8L4 8.665L8 8.665L8 8L8 7.335L4 7.335L4 8ZM8 8L8 8.665C9.8419 8.665 11.335 10.1581 11.335 12L12 12L12.665 12C12.665 9.4236 10.5764 7.335 8 7.335L8 8ZM0 12L0.665 12C0.665 10.1581 2.1581 8.665 4 8.665L4 8L4 7.335C1.4236 7.335 -0.665 9.4236 -0.665 12L0 12Z"/></svg>