<svg width="16" height="16" viewBox="0 0 16 16" fill="none" xmlns="http://www.w3.org/2000/svg">
<path d="M6.81017 11.5258C8.58142 11.2135 10.3063 11.4757 11.667 12.1826C13.0283 12.89 14.0575 14.065 14.3225 15.5678C14.3265 15.5907 14.328 15.6138 14.3316 15.6366L12.9782 15.6373C12.7568 14.6966 12.0745 13.8929 11.054 13.3627C9.97478 12.8019 8.54984 12.5696 7.04113 12.8356C5.53277 13.1017 4.27374 13.8073 3.45151 14.7032C3.17953 14.9996 2.95772 15.3133 2.78917 15.6371L1.34146 15.6375C1.58186 14.9715 1.97123 14.3496 2.47189 13.804C3.50858 12.6745 5.03924 11.8381 6.81017 11.5258Z" fill="var(--color-text-primary, black)" fill-opacity="0.9" style="fill: var(--color-text-primary, black);fill-opacity:0.9;"/>
<rect x="4.82715" y="0.728516" width="1.40553" height="1.73578" transform="rotate(-10 4.82715 0.728516)" fill="var(--color-text-primary, black)" fill-opacity="0.9" style="fill: var(--color-text-primary, black);fill-opacity:0.9;"/>
<circle cx="7.19815" cy="5.05883" r="0.845434" transform="rotate(-10 7.19815 5.05883)" fill="var(--color-text-primary, black)" fill-opacity="0.9" style="fill: var(--color-text-primary, black);fill-opacity:0.9;"/>
<circle cx="4.47452" cy="5.59203" r="0.845434" transform="rotate(-10 4.47452 5.59203)" fill="var(--color-text-primary, black)" fill-opacity="0.9" style="fill: var(--color-text-primary, black);fill-opacity:0.9;"/>
<path d="M10.3095 0.939151C10.5952 0.888805 10.8787 0.883922 11.1519 0.919525C10.9894 1.30175 10.9363 1.41903 10.8743 1.5218C10.8097 1.62886 10.7366 1.73178 10.6566 1.82793C10.5771 1.92345 10.4802 2.01601 10.1452 2.31872L3.26981 3.53103C2.48236 3.67022 1.95635 4.42119 2.09506 5.20876L2.23547 6.00507C2.57721 7.94225 4.42506 9.23528 6.3623 8.89386L9.46867 8.34612C10.4305 8.17652 11.2333 7.63512 11.7566 6.89654C11.8634 7.00873 12.0755 7.19079 12.4202 7.22378C12.6747 7.24801 12.9466 7.19084 13.207 7.06322C12.5324 8.38121 11.2702 9.37907 9.69964 9.656L6.59326 10.2037C3.93265 10.6727 1.39489 8.89659 0.925595 6.23603L0.785185 5.43972C0.518929 3.92878 1.52802 2.4879 3.03885 2.22116L10.3095 0.939151ZM12.9578 5.84681C12.9504 5.85054 12.9419 5.85188 12.9344 5.85489C12.9421 5.85183 12.9501 5.84965 12.9576 5.84584L12.9998 5.82056L12.9578 5.84681ZM11.9784 1.8388C11.9404 1.91304 11.9035 1.98226 11.8628 2.04957C11.9034 1.98236 11.9404 1.9131 11.9784 1.8388ZM12.0812 1.62334C12.0484 1.69516 12.0176 1.76088 11.9864 1.82251C12.0176 1.76084 12.0483 1.69503 12.0812 1.62334Z" fill="var(--color-text-primary, black)" fill-opacity="0.9" style="fill: var(--color-text-primary, black);fill-opacity:0.9;"/>
<path d="M12.3907 0.907751C12.5022 0.642533 12.5579 0.509924 12.6382 0.451824C12.693 0.412216 12.7545 0.393232 12.8108 0.398589C12.8933 0.406448 12.957 0.502213 13.0843 0.693741C13.3634 1.11339 13.5029 1.32322 13.6805 1.48759C13.8051 1.6029 13.9433 1.70123 14.093 1.78115C14.3066 1.89508 14.5505 1.95811 15.0384 2.08417C15.2611 2.1417 15.3725 2.17047 15.4069 2.2459C15.4305 2.29732 15.4327 2.36167 15.4132 2.42636C15.3846 2.52124 15.2776 2.61738 15.0636 2.80965C14.5947 3.23092 14.3602 3.44156 14.159 3.68343C14.0179 3.8531 13.8894 4.03371 13.7753 4.22265C13.6128 4.49198 13.4906 4.78254 13.2463 5.36365C13.1348 5.62887 13.079 5.76148 12.9988 5.81958C12.944 5.85918 12.8825 5.87817 12.8262 5.87281C12.7437 5.86495 12.68 5.76919 12.5526 5.57766C12.2736 5.15801 12.1341 4.94818 11.9565 4.78381C11.8319 4.6685 11.6937 4.57017 11.544 4.49025C11.3304 4.37632 11.0865 4.31329 10.5986 4.18723C10.3759 4.1297 10.2645 4.10093 10.23 4.0255C10.2065 3.97408 10.2043 3.90973 10.2238 3.84504C10.2524 3.75015 10.3594 3.65402 10.5734 3.46175C11.0423 3.04048 11.2768 2.82984 11.478 2.58797C11.6191 2.4183 11.7476 2.23769 11.8617 2.04875C12.0242 1.77942 12.1464 1.48886 12.3907 0.907751Z" fill="var(--color-text-primary, black)" fill-opacity="0.9" style="fill: var(--color-text-primary, black);fill-opacity:0.9;"/>
</svg>
